{"title":"Youssef Chahine - The Sixth Day - 1986 - Dalida","uid":8131538,"size":1251308504,"categoryP":"video","categoryS":"movies","magnet":"?xt=urn:btih:4d13e41461543205eb703a76b6c1ae2602e70f06&amp;dn=Youssef+Chahine+-+The+Sixth+Day+-+1986+-+Dalida&amp;tr=udp%3A%2F%2Ftracker.openbittorrent.com%3A80&amp;tr=udp%3A%2F%2Fopen.demonii.com%3A1337&amp;tr=udp%3A%2F%2Ftracker.coppersurfer.tk%3A6969&amp;tr=udp%3A%2F%2Fexodus.desync.com%3A6969","seeders":1,"leechers":1,"uploader":"falseidentity","files":3,"time":1360614641,"description":"&quot;Al-Yawm al-Sadis&quot; / &quot;The Sixth Day&quot; / &quot;Le sixieme jour&quot;\nComedy, Drama\nDirector: Youssef Chahine \nWriters: Youssef Chahine (screenplay), Andree Chedid (novel)\n\nCast:\nDalida - Saddika \nMohsen Mohieddin - Okka \nChewikar - Chahat \nHamdy Ahmed - Said \nSalah El-Saadany - Chabat \nMohamed Mounir - Dessouki \nYoussef Chahine - Rafah \n-----------------------------------------------------------------------------\n\n* Spoken language: Arabic\n* Texted languages (.srt files): the English and Russian adaptations of French subtitles.\n\n-----------------------------------------------------------------------------\nEnglish subtitles: charset - Western Europe(ISO8859-1)\nRussian subtitles: charset - Cyrillic(Windows-1251)\n\n\nChahine Youssef - The Sixth Day (1986).avi\nChahine_Youssef_-_The_Sixth_Day_1986_Eng.srt\nChahine_Youssef_-_The_Sixth_Day_1986_Rus.srt\n\n-----------------------------------------------------------------------------\nMedia Info:\n\nFormat                           : AVI\nFormat/Info                      : Audio Video Interleave\nFile size                        : 1.17 GiB\nDuration                         : 1h 42mn\nOverall bit rate                 : 1 633 Kbps\nWriting application              : VirtualDubMod 1.5.10.2 (build 2540/release)\nWriting library                  : VirtualDubMod build 2540/release\n\nVideo\nID                               : 0\nFormat                           : MPEG-4 Visual\nFormat profile                   : Advanced Simple@L5\nFormat settings, BVOP            : 1\nFormat settings, QPel            : No\nFormat settings, GMC             : No warppoints\nFormat settings, Matrix          : Default (MPEG)\nCodec ID                         : XVID\nCodec ID/Hint                    : XviD\nDuration                         : 1h 42mn\nBit rate                         : 1 495 Kbps\nWidth                            : 640 pixels\nHeight                           : 400 pixels\nDisplay aspect ratio             : 1.600\nFrame rate                       : 25.000 fps\nColor space                      : YUV\nChroma subsampling               : 4:2:0\nBit depth                        : 8 bits\nScan type                        : Progressive\nCompression mode                 : Lossy\nBits/(Pixel*Frame)               : 0.234\nStream size                      : 1.07 GiB (92%)\nWriting library                  : XviD 1.0.1 (UTC 2004-06-05)\n\nAudio\nID                               : 1\nFormat                           : MPEG Audio\nFormat version                   : Version 1\nFormat profile                   : Layer 3\nMode                             : Joint stereo\nMode extension                   : MS Stereo\nCodec ID                         : 55\nCodec ID/Hint                    : MP3\nDuration                         : 1h 42mn\nBit rate mode                    : Constant\nBit rate                         : 128 Kbps\nChannel(s)                       : 2 channels\nSampling rate                    : 48.0 KHz\nCompression mode                 : Lossy\nStream size                      : 93.5 MiB (8%)\nAlignment                        : Aligned on interleaves\nInterleave, duration             : 40 ms (1.00 video frame)\nInterleave, preload duration     : 504 ms\n\n-----------------------------------------------------------------------------","torrent":{"xt":"urn:btih:4d13e41461543205eb703a76b6c1ae2602e70f06","amp;dn":"Youssef+Chahine+-+The+Sixth+Day+-+1986+-+Dalida","amp;tr":["udp%3A%2F%2Ftracker.openbittorrent.com%3A80","udp%3A%2F%2Fopen.demonii.com%3A1337","udp%3A%2F%2Ftracker.coppersurfer.tk%3A6969","udp%3A%2F%2Fexodus.desync.com%3A6969"],"infoHash":"4d13e41461543205eb703a76b6c1ae2602e70f06","infoHashBuffer":{"type":"Buffer","data":[77,19,228,20,97,84,50,5,235,112,58,118,182,193,174,38,2,231,15,6]},"announce":[],"urlList":[]}}